<?xml version="1.0" encoding="utf-8"?>
<!-- Generator: Adobe Illustrator 17.1.0, SVG Export Plug-In . SVG Version: 6.00 Build 0)  -->
<!DOCTYPE svg PUBLIC "-//W3C//DTD SVG 1.1 Tiny//EN" "http://www.w3.org/Graphics/SVG/1.1/DTD/svg11-tiny.dtd">
<svg version="1.1" baseProfile="tiny" id="Layer_1" xmlns="http://www.w3.org/2000/svg" xmlns:xlink="http://www.w3.org/1999/xlink"
	 x="0px" y="0px" width="300px" height="300px" viewBox="0 0 300 300" xml:space="preserve">
<rect fill="#353744" width="300" height="300"/>
<g>
	<path fill="#FDF8C4" d="M151.9,134L151.9,134c0-0.1,0-0.2,0-0.3c0-0.9-0.7-1.6-1.6-1.6c0,0,0,0,0,0l0,0h-11.6l0,0
		c-0.8,0-1.5,0.7-1.6,1.5l0,0V154h14.8L151.9,134z M148.1,145.2c-0.9,0-1.6-0.7-1.6-1.6s0.7-1.6,1.6-1.6c0.9,0,1.6,0.7,1.6,1.6
		S149,145.2,148.1,145.2z"/>
	<path fill="#FDF8C4" d="M77.6,154h42.2v-19.6h-4.4v0c-2.5-0.1-4.4-2.1-4.4-4.5c0-1.1,0.4-2,1-2.8c0.1-0.2,0.3-0.4,0.5-0.6
		l28.4-22.6c0,0,0,0,0,0c0.8-1,2.1-1.7,3.5-1.7c1.5,0,2.7,0.7,3.6,1.8l28.4,22.5c0.4,0.5,0.7,0.9,0.8,1.3c0.4,0.6,0.6,1.4,0.6,2.2
		c0,2.4-1.9,4.4-4.2,4.5v0h-4.4V154h43c2.5,0,4.6-2.1,4.6-4.6V81c0-2.5-2.1-4.6-4.6-4.6h-35.8c-2.5,0-5.2-1.9-6-4.3l-1.6-4.8
		c-0.8-2.4-3.5-4.3-6-4.3h-35.6c-2.5,0-5.2,1.9-6,4.3l-1.6,4.8c-0.8,2.4-3.5,4.3-6,4.3H77.6c-2.5,0-4.6,2.1-4.6,4.6v68.4
		C73.1,151.9,75.1,154,77.6,154z M203,85.6c2.5,0,4.5,2,4.5,4.5c0,2.5-2,4.5-4.5,4.5c-2.5,0-4.5-2-4.5-4.5
		C198.5,87.6,200.5,85.6,203,85.6z"/>
</g>
<g>
	<path fill="#FDF8C4" d="M63.2,202.2c-2.9,1.4-5,0.8-7.7,0.8l9.3-15.2c2.5,1,5.2,2.3,7.5,2.1c4.3-0.4,8.5-4.1,9.3-9.1
		c-8,3.5-12.7,1.6-19.3,2.1c-5.6,0.5-17.2,3.4-21,12.8c-1.1,2.7-0.3,5.1,2.7,4.9c0.8-0.1,1.7-0.3,2.7-0.8c-0.5-0.8-0.3-2.2,0.1-3.2
		c2.4-6,7.8-9.3,12-10l-25.5,40.9c0.5,0.4,1.5,0.6,2.8,0.5c2.2-0.2,4.9-1.4,6.6-4.1l10.5-17.2c1.6,0.2,3,0.7,4.8,0.5
		C61.1,206.9,63.9,203.8,63.2,202.2z"/>
	<path fill="#FDF8C4" d="M85.1,205c2.2-5.6,1.3-9.9-5.1-9.4c-9,0.8-19.5,12.1-22.9,20.7c-2.1,5.3-1.4,9.8,4.7,9.3
		C71.1,224.8,81.7,213.5,85.1,205z M66.5,220.5c-2.1,0.2-3.1-1.6-1.1-6.6c2.2-5.6,8.8-13.5,14.2-14c2.4-0.2,2.5,2,1.3,5.1
		C78.4,210.9,71.1,220,66.5,220.5z"/>
	<path fill="#FDF8C4" d="M119.7,192.1c-9,0.8-19.5,12.1-22.9,20.7c-0.3,0.8-0.6,1.5-0.7,2.3c-2,1.4-4.7,2.7-6.6,2.9
		c-1.5,0.1-2.1-0.8-0.1-4.1l9.9-16.3l2.6-0.2c1.8-0.2,3.4-1.7,3.8-3.5l-4.3,0.4l4.7-7.7c-0.5-0.4-1.4-0.6-2.5-0.5
		c-2.1,0.2-4.8,1.4-6.4,4l-2.9,4.8l-1.2,0.1c-1.8,0.2-3.4,1.7-3.8,3.5l3-0.3l-10.7,17.5c-3.9,6.4-2.4,8.3,1.3,8
		c3.8-0.3,9.1-3.1,13-6.2c0,3,1.6,4.9,5.8,4.6c9.3-0.8,20-12.1,23.4-20.6C127,195.9,126.1,191.6,119.7,192.1z M120.5,201.5
		c-2.4,6-9.7,15.1-14.4,15.5c-2.1,0.2-3.1-1.6-1.1-6.6c2.2-5.6,8.8-13.5,14.2-14C121.7,196.1,121.8,198.4,120.5,201.5z"/>
	<path fill="#FDF8C4" d="M252.3,180.4c-6.9,0.6-11.8,5.1-13.7,9.7c-3.4,8.5,6.6,7.2,4.8,11.5c-1.1,2.8-4.3,4.8-6.5,5
		c-1.9,0.2-3.3-0.8-2.2-3.4c0.5-1.4,1.6-2.8,2.7-3.7c-0.4-0.5-1.1-0.7-2.1-0.6c-2.9,0.3-5.4,2.5-6.8,4.8c-0.2,0.4-0.4,0.8-0.6,1.2
		c-1.3,0.6-2.6,1.1-3.7,1.2c-1.5,0.1-2.1-0.8-0.1-4.1l11.7-19.2c-0.5-0.4-1.4-0.6-2.5-0.5c-2.1,0.2-4.8,1.4-6.4,4l-10,16.4
		c-2.3,2-4.6,3.3-6.6,3.4c-1.8,0.2-2.1-0.8-0.7-3.2l10.1-16.5c1.4-2.2,0.5-3.1-1.6-2.9c-2.5,0.2-5.1,1.6-7.7,3.3
		c-1.6,1-1.8,2.7-1.3,3.1c0.7-0.5,1.2-0.8,1.5-0.8c0.5,0,0.6,0.4,0,1.4l-7.5,11.9c-0.6,1-1.2,2.1-1.8,3.3c-2,1.3-4.6,2.6-6.5,2.8
		c-1.5,0.1-2.1-0.8-0.1-4.1l11.7-19.2c-0.5-0.4-1.4-0.6-2.5-0.5c-1.5,0.1-3.2,0.8-4.7,2c-1-1.1-2.7-1.6-5.4-1.3
		c-8.2,0.7-18.9,11.2-22.9,21.2c-0.2,0.5-0.4,1.1-0.6,1.7c-1.9,1.2-4.8,2.8-6.5,2.9c-1.6,0.1-2.2-0.7-0.3-4l20.5-33.4
		c-0.6-0.4-1.5-0.6-2.6-0.5c-2.2,0.2-4.9,1.4-6.6,4.1l-8.8,14.4c-2.6,0.5-6.2,1-9.2,1.3l9.4-15.4l0.5,0c1.4-0.1,2.5-1.3,3-2.4
		c0.2-0.6,0.2-1.1-0.2-1.4c-3.1,1.6-7.1-0.5-12.1,0c-7,0.6-11.5,5-12.9,8.6c-1.1,2.8-0.4,5.2,2.6,5c0.8-0.1,1.7-0.3,2.8-0.8
		c-0.4-0.7-0.4-1.9,0.1-3.2c1.1-2.7,4.2-5.7,9.6-6.2l0.3,0l-25.8,41.3c0.5,0.4,1.5,0.6,2.8,0.5c2.2-0.2,4.9-1.4,6.6-4.1l10.8-17.8
		c2.9-0.3,7-1.2,9.8-2.3l-8.9,14.6c-4.1,6.8-1.2,8.1,2.3,7.8c3.3-0.3,7.5-2.9,11.9-6.1c-0.2,2.7,0.7,5,4.7,4.6
		c3.4-0.3,7.5-3,11.3-6.5c-1.9,4.5,0.4,5.5,3.2,5.3c2.9-0.3,7.4-2.7,11.2-5.5c-0.5,2.6,0.3,4.5,4,4.2c3.4-0.3,7.4-3.3,11.2-7.2
		c-2.3,5,0,6.2,2.9,5.9c2.3-0.2,5.8-1.9,9.1-4c0.4,1.8,2.4,3,6.3,2.7c8.7-0.8,13.8-5.2,16-10.7c2.9-7.2-7.4-5.1-4.9-11.1
		c1.2-3.1,3.7-4.8,5.3-4.9c1.4-0.1,2.3,0.7,1.4,2.8c-0.5,1.1-1.4,2.4-2.2,3.2c0.6,0.4,1.3,0.6,2.1,0.6c2.2-0.1,4.7-1.8,6-5
		C259,181.6,257.3,180,252.3,180.4z M187.6,205.4c-2.4,2.2-5.5,3.9-7.4,4.1c-1.8,0.2-2.7-1-1.6-3.8c2.5-6.2,8.6-15.4,15.8-16.1
		c0.9-0.1,1.7,0,2.6,0.2L187.6,205.4z"/>
</g>
<g>
	<path fill="#FDF8C4" d="M82.6,237.6c-0.4-0.3-0.8-0.4-1.3-0.6c-0.5-0.1-1-0.2-1.6-0.2h-3.8v10.3h2.3v-3.5h1.4
		c0.5,0,1.1-0.1,1.6-0.2c0.5-0.1,0.9-0.3,1.3-0.6c0.4-0.3,0.7-0.6,0.9-1.1c0.2-0.4,0.3-1,0.3-1.6c0-0.6-0.1-1.1-0.3-1.6
		C83.2,238.2,82.9,237.9,82.6,237.6z M79.6,241.9h-1.3v-3.1h1.3c0.6,0,1.1,0.1,1.4,0.3c0.3,0.2,0.5,0.6,0.5,1.1
		C81.5,241.3,80.8,241.9,79.6,241.9z"/>
	<polygon fill="#FDF8C4" points="94.4,240.9 90.8,240.9 90.8,236.9 88.5,236.9 88.5,247.2 90.8,247.2 90.8,242.9 94.4,242.9 
		94.4,247.2 96.7,247.2 96.7,236.9 94.4,236.9 	"/>
	<path fill="#FDF8C4" d="M109.9,238.1c-0.4-0.5-0.9-0.8-1.5-1c-0.6-0.2-1.2-0.4-1.9-0.4c-0.7,0-1.3,0.1-1.9,0.4s-1.1,0.6-1.5,1
		c-0.4,0.4-0.7,1-1,1.7c-0.2,0.7-0.3,1.4-0.3,2.3c0,0.8,0.1,1.6,0.3,2.3c0.2,0.7,0.5,1.2,1,1.7s0.9,0.8,1.5,1.1s1.2,0.4,1.9,0.4
		c0.7,0,1.3-0.1,1.9-0.4c0.6-0.2,1.1-0.6,1.5-1.1c0.4-0.5,0.7-1,1-1.7c0.2-0.7,0.3-1.4,0.3-2.3c0-0.8-0.1-1.6-0.3-2.2
		C110.6,239.1,110.3,238.6,109.9,238.1z M108.2,244.5c-0.4,0.6-1,0.9-1.7,0.9c-0.7,0-1.3-0.3-1.7-0.9c-0.4-0.6-0.6-1.4-0.6-2.5
		c0-1,0.2-1.8,0.6-2.4c0.4-0.6,1-0.9,1.7-0.9c0.7,0,1.3,0.3,1.7,0.9c0.4,0.6,0.6,1.4,0.6,2.4C108.8,243.1,108.6,243.9,108.2,244.5z"
		/>
	<polygon fill="#FDF8C4" points="115.3,238.9 118.2,238.9 118.2,247.2 120.5,247.2 120.5,238.9 123.4,238.9 123.4,236.9 
		115.3,236.9 	"/>
	<path fill="#FDF8C4" d="M135.6,238.1c-0.4-0.5-0.9-0.8-1.5-1c-0.6-0.2-1.2-0.4-1.9-0.4c-0.7,0-1.3,0.1-1.9,0.4
		c-0.6,0.2-1.1,0.6-1.5,1c-0.4,0.4-0.7,1-1,1.7c-0.2,0.7-0.3,1.4-0.3,2.3c0,0.8,0.1,1.6,0.3,2.3c0.2,0.7,0.5,1.2,1,1.7
		c0.4,0.5,0.9,0.8,1.5,1.1c0.6,0.2,1.2,0.4,1.9,0.4c0.7,0,1.3-0.1,1.9-0.4c0.6-0.2,1.1-0.6,1.5-1.1c0.4-0.5,0.7-1,1-1.7
		c0.2-0.7,0.3-1.4,0.3-2.3c0-0.8-0.1-1.6-0.3-2.2C136.3,239.1,136,238.6,135.6,238.1z M133.9,244.5c-0.4,0.6-1,0.9-1.7,0.9
		c-0.7,0-1.3-0.3-1.7-0.9c-0.4-0.6-0.6-1.4-0.6-2.5c0-1,0.2-1.8,0.6-2.4c0.4-0.6,1-0.9,1.7-0.9c0.7,0,1.3,0.3,1.7,0.9
		c0.4,0.6,0.6,1.4,0.6,2.4C134.5,243.1,134.3,243.9,133.9,244.5z"/>
	<path fill="#FDF8C4" d="M146.2,243.3h1.7v1.8c-0.1,0.1-0.3,0.2-0.5,0.2c-0.2,0.1-0.4,0.1-0.6,0.1c-1,0-1.7-0.3-2.2-0.9
		c-0.5-0.6-0.7-1.4-0.7-2.5c0-0.5,0.1-1,0.2-1.4c0.1-0.4,0.3-0.8,0.6-1s0.5-0.5,0.9-0.7s0.7-0.2,1.1-0.2c0.4,0,0.8,0.1,1.1,0.2
		c0.3,0.1,0.5,0.3,0.8,0.6l1.3-1.4c-0.3-0.3-0.8-0.7-1.3-0.9c-0.5-0.3-1.2-0.4-1.9-0.4c-0.7,0-1.4,0.1-2,0.4
		c-0.6,0.2-1.2,0.6-1.6,1.1s-0.8,1-1.1,1.7c-0.3,0.7-0.4,1.4-0.4,2.3c0,0.9,0.1,1.6,0.4,2.3c0.3,0.7,0.6,1.2,1.1,1.7
		c0.5,0.4,1,0.8,1.6,1c0.6,0.2,1.3,0.3,2,0.3c0.7,0,1.4-0.1,2-0.4c0.6-0.2,1.1-0.5,1.5-0.9v-4.7h-3.8V243.3z"/>
	<path fill="#FDF8C4" d="M162.5,242c0.3-0.5,0.5-1.1,0.5-1.9c0-0.6-0.1-1.1-0.3-1.5c-0.2-0.4-0.5-0.7-0.9-1
		c-0.4-0.2-0.8-0.4-1.3-0.5s-1-0.2-1.5-0.2h-3.7v10.3h2.3v-3.7h1.3l2,3.7h2.6l-2.3-4.1C161.7,242.9,162.1,242.5,162.5,242z
		 M160.2,241.3c-0.3,0.3-0.8,0.4-1.4,0.4h-1.2v-2.9h1.2c0.6,0,1.1,0.1,1.4,0.3c0.3,0.2,0.5,0.6,0.5,1.1
		C160.7,240.6,160.5,241,160.2,241.3z"/>
	<path fill="#FDF8C4" d="M170.7,236.9l-3.2,10.3h2.4l0.6-2.5h3.2l0.6,2.5h2.5l-3.2-10.3H170.7z M170.9,243l0.3-1
		c0.1-0.5,0.3-1.1,0.4-1.6c0.1-0.6,0.3-1.1,0.4-1.7h0.1c0.1,0.5,0.3,1.1,0.4,1.7c0.1,0.6,0.3,1.1,0.4,1.6l0.2,1H170.9z"/>
	<path fill="#FDF8C4" d="M187.8,237.6c-0.4-0.3-0.8-0.4-1.3-0.6c-0.5-0.1-1-0.2-1.6-0.2h-3.8v10.3h2.3v-3.5h1.4
		c0.5,0,1.1-0.1,1.6-0.2c0.5-0.1,0.9-0.3,1.3-0.6c0.4-0.3,0.7-0.6,0.9-1.1c0.2-0.4,0.3-1,0.3-1.6c0-0.6-0.1-1.1-0.3-1.6
		C188.4,238.2,188.2,237.9,187.8,237.6z M184.8,241.9h-1.3v-3.1h1.3c0.6,0,1.1,0.1,1.4,0.3c0.3,0.2,0.5,0.6,0.5,1.1
		C186.7,241.3,186.1,241.9,184.8,241.9z"/>
	<polygon fill="#FDF8C4" points="199.6,240.9 196.1,240.9 196.1,236.9 193.8,236.9 193.8,247.2 196.1,247.2 196.1,242.9 
		199.6,242.9 199.6,247.2 202,247.2 202,236.9 199.6,236.9 	"/>
	<path fill="#FDF8C4" d="M211.6,239.3c-0.1,0.4-0.3,0.8-0.4,1.1c-0.1,0.4-0.3,0.7-0.4,1.1h-0.1c-0.1-0.4-0.3-0.8-0.4-1.1
		c-0.1-0.4-0.3-0.7-0.4-1.1l-0.9-2.4h-2.5l3.1,6.6v3.7h2.3v-3.7l3.1-6.6h-2.4L211.6,239.3z"/>
</g>
</svg>
