<?xml version="1.0" encoding="utf-8"?>
<!-- Generator: Adobe Illustrator 17.1.0, SVG Export Plug-In . SVG Version: 6.00 Build 0)  -->
<!DOCTYPE svg PUBLIC "-//W3C//DTD SVG 1.1 Tiny//EN" "http://www.w3.org/Graphics/SVG/1.1/DTD/svg11-tiny.dtd">
<svg version="1.1" baseProfile="tiny" id="Layer_1" xmlns="http://www.w3.org/2000/svg" xmlns:xlink="http://www.w3.org/1999/xlink"
	 x="0px" y="0px" width="150px" height="37px" viewBox="0 0 150 37" xml:space="preserve">
<g>
	<path fill="#FDF8C4" d="M19.9,19.7c-1.9,0.9-3.3,0.5-5.1,0.5L21,10.1c1.7,0.7,3.4,1.5,5,1.4c2.9-0.3,5.7-2.7,6.2-6.1
		c-5.3,2.3-8.5,1-12.9,1.4c-3.8,0.3-11.5,2.3-14,8.5c-0.7,1.8-0.2,3.4,1.8,3.2c0.5,0,1.1-0.2,1.8-0.5c-0.3-0.6-0.2-1.5,0.1-2.1
		c1.6-4,5.2-6.2,8-6.7L0,36.5c0.3,0.3,1,0.4,1.9,0.3c1.5-0.1,3.3-0.9,4.4-2.7l7-11.5c1.1,0.1,2,0.4,3.2,0.3
		C18.5,22.8,20.4,20.8,19.9,19.7z"/>
	<path fill="#FDF8C4" d="M34.5,21.6c1.5-3.7,0.9-6.6-3.4-6.3c-6,0.5-13,8.1-15.3,13.8c-1.4,3.6-0.9,6.6,3.1,6.2
		C25.2,34.8,32.3,27.2,34.5,21.6z M22.1,31.9c-1.4,0.1-2.1-1.1-0.7-4.4c1.5-3.7,5.9-9,9.5-9.3c1.6-0.1,1.7,1.4,0.9,3.4
		C30.1,25.5,25.2,31.6,22.1,31.9z"/>
	<path fill="#FDF8C4" d="M57.6,13c-6,0.5-13,8.1-15.3,13.8c-0.2,0.5-0.4,1-0.5,1.5c-1.3,0.9-3.1,1.8-4.4,1.9c-1,0.1-1.4-0.5-0.1-2.7
		l6.6-10.9l1.7-0.2c1.2-0.1,2.3-1.2,2.5-2.4l-2.9,0.3l3.1-5.1c-0.4-0.3-1-0.4-1.7-0.3c-1.4,0.1-3.2,0.9-4.3,2.7l-2,3.2l-0.8,0.1
		c-1.2,0.1-2.3,1.2-2.5,2.4l2-0.2L32,28.8c-2.6,4.3-1.6,5.6,0.8,5.3c2.5-0.2,6.1-2.1,8.7-4.2c0,2,1.1,3.3,3.9,3.1
		c6.2-0.5,13.3-8.1,15.6-13.8C62.5,15.5,61.9,12.6,57.6,13z M58.2,19.2c-1.6,4-6.5,10.1-9.6,10.3c-1.4,0.1-2.1-1.1-0.7-4.4
		c1.5-3.7,5.9-9,9.5-9.3C59,15.6,59,17.1,58.2,19.2z"/>
	<path fill="#FDF8C4" d="M146.1,5.2c-4.6,0.4-7.9,3.4-9.1,6.4c-2.3,5.7,4.4,4.8,3.2,7.7c-0.7,1.9-2.8,3.2-4.3,3.3
		c-1.3,0.1-2.2-0.5-1.5-2.3c0.4-0.9,1-1.9,1.8-2.5c-0.3-0.3-0.7-0.4-1.4-0.4c-1.9,0.2-3.6,1.6-4.5,3.2c-0.2,0.3-0.3,0.6-0.4,0.8
		c-0.9,0.4-1.7,0.7-2.5,0.8c-1,0.1-1.4-0.5-0.1-2.7l7.8-12.8c-0.4-0.3-1-0.4-1.7-0.3c-1.4,0.1-3.2,0.9-4.3,2.7l-6.7,11
		c-1.6,1.3-3,2.2-4.4,2.3c-1.2,0.1-1.4-0.5-0.4-2.1l6.7-11c0.9-1.5,0.4-2-1.1-1.9c-1.7,0.1-3.4,1.1-5.2,2.2c-1,0.7-1.2,1.8-0.8,2.1
		c0.5-0.3,0.8-0.5,1-0.5c0.4,0,0.4,0.3,0,0.9l-5,8c-0.4,0.7-0.8,1.4-1.2,2.2c-1.3,0.9-3.1,1.7-4.3,1.9c-1,0.1-1.4-0.5-0.1-2.7
		l7.8-12.8c-0.4-0.3-1-0.4-1.7-0.3c-1,0.1-2.2,0.5-3.1,1.3c-0.7-0.7-1.8-1-3.6-0.9c-5.5,0.5-12.6,7.5-15.3,14.1
		c-0.1,0.4-0.3,0.8-0.4,1.2c-1.3,0.8-3.2,1.8-4.3,1.9c-1.1,0.1-1.5-0.5-0.2-2.7l13.7-22.3c-0.4-0.3-1-0.4-1.7-0.3
		c-1.5,0.1-3.3,0.9-4.4,2.7l-5.9,9.6c-1.8,0.3-4.1,0.7-6.1,0.8l6.3-10.3l0.4,0c0.9-0.1,1.7-0.9,2-1.6c0.2-0.4,0.1-0.7-0.2-0.9
		c-2.1,1.1-4.8-0.3-8.1,0c-4.7,0.4-7.7,3.3-8.6,5.7c-0.8,1.9-0.3,3.5,1.8,3.3c0.6,0,1.2-0.2,1.9-0.5c-0.3-0.5-0.2-1.3,0.1-2.1
		c0.7-1.8,2.8-3.8,6.4-4.2l0.2,0L67.5,30.6c0.3,0.3,1,0.4,1.9,0.3c1.5-0.1,3.3-0.9,4.4-2.7L81,16.3c1.9-0.2,4.6-0.8,6.6-1.5
		l-5.9,9.7c-2.8,4.5-0.8,5.4,1.6,5.2c2.2-0.2,5-1.9,8-4.1c-0.2,1.8,0.5,3.3,3.1,3.1c2.3-0.2,5-2,7.6-4.4c-1.2,3,0.3,3.7,2.1,3.5
		c1.9-0.2,5-1.8,7.5-3.7c-0.3,1.7,0.2,3,2.7,2.8c2.3-0.2,4.9-2.2,7.5-4.8c-1.5,3.4,0,4.1,2,4c1.6-0.1,3.9-1.3,6.1-2.7
		c0.3,1.2,1.6,2,4.2,1.8c5.8-0.5,9.2-3.5,10.7-7.1c1.9-4.8-4.9-3.4-3.3-7.4c0.8-2.1,2.5-3.2,3.5-3.3c1-0.1,1.5,0.5,1,1.9
		c-0.3,0.8-0.9,1.6-1.5,2.1c0.4,0.3,0.9,0.4,1.4,0.4c1.4-0.1,3.2-1.2,4-3.4C150.6,5.9,149.5,4.9,146.1,5.2z M102.9,21.8
		c-1.6,1.5-3.7,2.6-5,2.7c-1.2,0.1-1.8-0.6-1-2.5c1.7-4.1,5.8-10.3,10.6-10.7c0.6-0.1,1.2,0,1.7,0.1L102.9,21.8z"/>
</g>
</svg>
