<?xml version="1.0" encoding="utf-8"?>
<!-- Generator: Adobe Illustrator 18.1.1, SVG Export Plug-In . SVG Version: 6.00 Build 0)  -->
<svg version="1.1" xmlns="http://www.w3.org/2000/svg" xmlns:xlink="http://www.w3.org/1999/xlink" x="0px" y="0px"
	 viewBox="0 0 40 40" enable-background="new 0 0 40 40" xml:space="preserve">
<g id="Layer_1">
	<g>
		<path fill="#333333" d="M19.9,10.6c-4.2,0-7.6,3.4-7.6,7.6c0,4.2,3.4,7.6,7.6,7.6c4.2,0,7.6-3.4,7.6-7.6
			C27.4,14,24,10.6,19.9,10.6z M24.2,21.8c-2,2.4-5.6,2.7-8,0.6c-2.4-2-2.7-5.6-0.6-8c2-2.4,5.6-2.7,8-0.6
			C25.9,15.9,26.2,19.5,24.2,21.8z"/>
		<path fill="#333333" d="M19.9,14.4c-2.1,0-3.8,1.7-3.8,3.8v0c0,0.3,0.2,0.5,0.5,0.5c0.3,0,0.5-0.2,0.5-0.5v0
			c0-1.6,1.3-2.8,2.8-2.8c0.3,0,0.5-0.2,0.5-0.5C20.3,14.6,20.1,14.4,19.9,14.4z"/>
		<path fill="#333333" d="M40,28.8c0-1.8-1.7-3.3-5-4.6V12.5c0-1.4-1-2.6-2.4-2.8L28.5,9l-1.3-3.3c-0.4-1.1-1.5-1.8-2.6-1.8h-9.5
			c-1.2,0-2.2,0.7-2.6,1.8L11.2,9L7.1,9.7c-1.4,0.2-2.4,1.4-2.4,2.8v11.9C1.6,25.6,0,27.1,0,28.8c0,1.9,2.2,3.7,6.1,4.9
			c3.7,1.2,8.7,1.9,13.9,1.9c1.4,0,2.8,0,4.2-0.1c0.3,0,0.5-0.3,0.5-0.6c0-0.3-0.3-0.5-0.6-0.5c-1.3,0.1-2.7,0.1-4.1,0.1
			c-5.1,0-10-0.6-13.6-1.8c-3.4-1.1-5.3-2.5-5.3-3.9c0-1.1,1.3-2.3,3.6-3.3v1.1c0,1.6,1.3,2.8,2.8,2.8h24.6c1.6,0,2.8-1.3,2.8-2.8
			v-1.2c2.5,1,3.9,2.2,3.9,3.4c0,1.9-3.7,3.9-9.4,4.9l1.6-2.4c0.2-0.2,0.1-0.6-0.1-0.8s-0.6-0.1-0.8,0.1l-2.4,3.4
			c-0.2,0.2-0.1,0.6,0.1,0.8l3.4,2.4c0.1,0.1,0.2,0.1,0.3,0.1c0.2,0,0.3-0.1,0.4-0.2c0.2-0.2,0.1-0.6-0.1-0.8l-2.3-1.6
			C36.2,33.6,40,31.4,40,28.8z M33.1,26.7c0,0.5-0.4,0.9-0.9,0.9H7.6c-0.5,0-0.9-0.4-0.9-0.9V12.5c0-0.5,0.3-0.9,0.8-0.9l5.2-0.9
			l1.7-4.2c0.1-0.4,0.5-0.6,0.9-0.6h9.5c0.4,0,0.7,0.2,0.9,0.6l1.7,4.2l5.2,0.9c0.5,0.1,0.8,0.5,0.8,0.9V26.7z"/>
	</g>
</g>
<g id="Layer_2" display="none">
	<g id="search_2_" display="inline">
		<path fill="#333333" d="M24.3,1.8c-6.1,0-11.1,5-11.1,11.1c0,1.9,0.5,3.6,1.3,5.2l-7.7,7.7l0,0c-0.6,0.6-1,1.4-1,2.3
			c0,1.8,1.5,3.3,3.3,3.3c0.9,0,1.7-0.4,2.3-1l0,0l7.7-7.7c1.5,0.8,3.3,1.3,5.2,1.3c6.1,0,11.1-5,11.1-11.1S30.4,1.8,24.3,1.8z
			 M10.3,29.3c-0.3,0.3-0.7,0.5-1.2,0.5c-0.9,0-1.6-0.7-1.6-1.6c0-0.5,0.2-0.9,0.5-1.2l0,0l7.5-7.5c0.7,0.9,1.4,1.7,2.3,2.3
			L10.3,29.3z M24.3,22.2c-5.1,0-9.2-4.1-9.2-9.2s4.1-9.2,9.2-9.2c5.1,0,9.2,4.1,9.2,9.2S29.4,22.2,24.3,22.2z"/>
		<path fill="#333333" d="M24.3,6.5c-3.6,0-6.5,2.9-6.5,6.5c0,0.3,0.2,0.5,0.5,0.5c0.3,0,0.5-0.2,0.5-0.5c0-3.1,2.5-5.5,5.5-5.5
			c0.3,0,0.5-0.2,0.5-0.5S24.6,6.5,24.3,6.5z"/>
	</g>
</g>
<g id="Layer_3" display="none">
	<g display="inline">
		<path fill="#333333" d="M27.6,8.9h-0.3c-0.6,0-1.1,0.5-1.1,1.1s0.5,1.1,1.1,1.1h0.3c2.7,0,5,2.2,5,5v8.3c0,2.7-2.2,5-5,5H23
			c-2.7,0-5-2.2-5-5V16c0-2.2,1.5-4.2,3.6-4.8c0.6-0.2,0.9-0.7,0.7-1.3C22.2,9.4,21.6,9,21,9.2c-3,0.9-5.1,3.7-5.1,6.8v8.3
			c0,3.9,3.2,7.1,7.1,7.1h4.7c3.9,0,7.1-3.2,7.1-7.1V16C34.7,12.1,31.6,8.9,27.6,8.9z"/>
		<path fill="#333333" d="M13.9,22.2h-0.3c-2.7,0-5-2.2-5-5V8.9c0-2.7,2.2-5,5-5h4.7c2.7,0,5,2.2,5,5v8.3c0,2.2-1.5,4.2-3.6,4.8
			c-0.6,0.2-0.9,0.7-0.7,1.3c0.2,0.6,0.7,0.9,1.3,0.7c3-0.9,5.1-3.7,5.1-6.8V8.9c0-3.9-3.2-7.1-7.1-7.1h-4.7C9.7,1.8,6.5,5,6.5,8.9
			v8.3c0,3.9,3.2,7.1,7.1,7.1h0.3c0.6,0,1.1-0.5,1.1-1.1S14.5,22.2,13.9,22.2z"/>
	</g>
</g>
</svg>
