<?xml version="1.0" encoding="utf-8"?>
<!-- Generator: Adobe Illustrator 18.1.1, SVG Export Plug-In . SVG Version: 6.00 Build 0)  -->
<svg version="1.1" id="Layer_2" xmlns="http://www.w3.org/2000/svg" xmlns:xlink="http://www.w3.org/1999/xlink" x="0px" y="0px"
	 viewBox="0 0 40 40" enable-background="new 0 0 40 40" xml:space="preserve">
<g id="search_2_">
	<path fill="#333333" d="M23.7,5.2c-6.1,0-11.1,5-11.1,11.1c0,1.9,0.5,3.6,1.3,5.2l-7.7,7.7l0,0c-0.6,0.6-1,1.4-1,2.3
		c0,1.8,1.5,3.3,3.3,3.3c0.9,0,1.7-0.4,2.3-1l0,0l7.7-7.7c1.5,0.8,3.3,1.3,5.2,1.3c6.1,0,11.1-5,11.1-11.1S29.8,5.2,23.7,5.2z
		 M9.6,32.7c-0.3,0.3-0.7,0.5-1.2,0.5c-0.9,0-1.6-0.7-1.6-1.6c0-0.5,0.2-0.9,0.5-1.2l0,0l7.5-7.5c0.7,0.9,1.4,1.7,2.3,2.3L9.6,32.7z
		 M23.7,25.5c-5.1,0-9.2-4.1-9.2-9.2s4.1-9.2,9.2-9.2c5.1,0,9.2,4.1,9.2,9.2S28.8,25.5,23.7,25.5z"/>
	<path fill="#333333" d="M23.7,9.8c-3.6,0-6.5,2.9-6.5,6.5c0,0.3,0.2,0.5,0.5,0.5c0.3,0,0.5-0.2,0.5-0.5c0-3.1,2.5-5.5,5.5-5.5
		c0.3,0,0.5-0.2,0.5-0.5C24.2,10,24,9.8,23.7,9.8z"/>
</g>
</svg>
