<?xml version="1.0" encoding="utf-8"?>
<!-- Generator: Adobe Illustrator 15.1.0, SVG Export Plug-In . SVG Version: 6.00 Build 0)  -->
<!DOCTYPE svg PUBLIC "-//W3C//DTD SVG 1.1//EN" "http://www.w3.org/Graphics/SVG/1.1/DTD/svg11.dtd">
<svg version="1.1" id="Layer_1" xmlns="http://www.w3.org/2000/svg" xmlns:xlink="http://www.w3.org/1999/xlink" x="0px" y="0px"
	 width="28px" height="28px" viewBox="0 0 28 28" enable-background="new 0 0 28 28" xml:space="preserve">
<path fill="#EFA12E" stroke="#EFA12E" stroke-miterlimit="10" d="M27.467,14.496c0.009-0.108,0.033-0.212,0.033-0.323h-0.016
	c0.001-0.059,0.008-0.115,0.008-0.173c0-7.442-6.054-13.496-13.496-13.496c-7.34,0-13.319,5.894-13.481,13.196
	C0.513,13.751,0.5,13.799,0.5,13.85h0.007c0,0.051-0.007,0.1-0.007,0.15c0,4.671,2.387,8.793,6.003,11.218
	c0.183,0.151,0.373,0.297,0.583,0.419l0.028-0.049c2.018,1.204,4.367,1.908,6.882,1.908c2.12,0,4.119-0.505,5.905-1.38
	c0.226-0.082,0.445-0.178,0.657-0.3l-0.014-0.024C24.547,23.56,27.289,19.353,27.467,14.496z M26.971,14
	c0,0.167-0.019,0.331-0.025,0.496c-0.167,1.913-1.76,3.424-3.716,3.424h-6.488l5.591-9.748c0.567-0.989,0.716-2.141,0.418-3.241
	c-0.068-0.255-0.166-0.498-0.276-0.731C25.222,6.581,26.971,10.087,26.971,14z M9.466,14.065l2.299-3.963h4.5l2.243,3.688
	l-2.367,4.129h-4.455L9.466,14.065z M20.498,2.789l-0.005,0.008c0.868,0.498,1.491,1.304,1.753,2.271
	c0.262,0.966,0.132,1.977-0.366,2.846l-3.074,5.361l-5.76-9.47C12.3,2.578,11.029,1.869,9.695,1.773
	c1.349-0.476,2.792-0.748,4.301-0.748C16.366,1.025,18.583,1.675,20.498,2.789z M7.448,2.818L7.45,2.821
	c1.766-1.075,4.076-0.511,5.15,1.254l3.348,5.505H4.77c-1.441,0-2.712,0.722-3.485,1.819C2.031,7.743,4.328,4.653,7.448,2.818z
	 M1.021,14c0-0.101,0.013-0.199,0.015-0.3c0.081-1.996,1.718-3.598,3.733-3.598h6.392l-5.625,9.698
	c-0.573,0.986-0.727,2.137-0.434,3.238c0.054,0.202,0.135,0.39,0.216,0.578C2.688,21.24,1.021,17.815,1.021,14z M6.771,24.771
	c-0.563-0.487-0.969-1.13-1.164-1.865c-0.257-0.967-0.122-1.977,0.381-2.843l3.176-5.476l5.564,9.66
	c0.569,0.989,1.49,1.696,2.59,1.993c0.207,0.056,0.416,0.091,0.625,0.115c-1.245,0.399-2.57,0.619-3.947,0.619
	C11.324,26.975,8.838,26.161,6.771,24.771z M19.719,25.627c-0.723,0.268-1.506,0.313-2.265,0.109
	c-0.967-0.261-1.774-0.882-2.274-1.75l-3.192-5.543h11.242c1.432,0,2.693-0.714,3.468-1.797
	C25.876,20.598,23.244,23.884,19.719,25.627z"/>
</svg>
