<?xml version="1.0" encoding="utf-8"?>
<!-- Generator: Adobe Illustrator 15.0.0, SVG Export Plug-In . SVG Version: 6.00 Build 0)  -->
<!DOCTYPE svg PUBLIC "-//W3C//DTD SVG 1.1//EN" "http://www.w3.org/Graphics/SVG/1.1/DTD/svg11.dtd">
<svg version="1.1" id="Layer_1" xmlns="http://www.w3.org/2000/svg" xmlns:xlink="http://www.w3.org/1999/xlink" x="0px" y="0px"
	 width="44px" height="44px" viewBox="0 0 44 44" enable-background="new 0 0 44 44" xml:space="preserve">
<title></title>
<g>
	<path fill="#0895B5" d="M33.191,12.33c-0.939,0.569-1.98,0.979-3.086,1.19c-0.887-1.008-2.15-1.65-3.549-1.674
		c-2.684-0.045-4.86,2.224-4.86,5.066c0,0.403,0.043,0.797,0.126,1.175c-4.04-0.263-7.622-2.366-10.019-5.537
		c-0.419,0.76-0.658,1.648-0.658,2.6c0,1.801,0.857,3.398,2.162,4.343c-0.797-0.035-1.546-0.276-2.202-0.672
		c0,0.021,0,0.043,0,0.065c0,2.515,1.676,4.625,3.899,5.117c-0.408,0.113-0.838,0.176-1.281,0.172
		c-0.312-0.002-0.617-0.037-0.914-0.1c0.618,2.064,2.413,3.568,4.541,3.619c-1.664,1.379-3.76,2.203-6.037,2.197
		c-0.393-0.002-0.779-0.025-1.159-0.076c2.15,1.477,4.706,2.336,7.451,2.338c8.941,0.002,13.828-7.779,13.828-14.527
		c0-0.222-0.004-0.441-0.012-0.661c0.949-0.707,1.773-1.595,2.424-2.607c-0.871,0.393-1.809,0.653-2.791,0.763
		C32.059,14.504,32.828,13.516,33.191,12.33z"/>
</g>
</svg>
