<?xml version="1.0" encoding="utf-8"?>
<!-- Generator: Adobe Illustrator 18.1.1, SVG Export Plug-In . SVG Version: 6.00 Build 0)  -->
<svg version="1.1" id="Layer_1" xmlns="http://www.w3.org/2000/svg" xmlns:xlink="http://www.w3.org/1999/xlink" x="0px" y="0px"
	 viewBox="0 0 250 87" enable-background="new 0 0 250 87" xml:space="preserve">
<g>
	<g>
		<g>
			<path fill="#6C7DAB" d="M8.7,15.5h1.4c1.3,0,2.2-0.4,2.8-1.2l8.5-12.3c0.5-0.7,1-1.1,1.6-1.4c0.6-0.2,1.3-0.4,2.2-0.4h7.6
				L21.6,15.4c-0.4,0.6-0.8,1-1.2,1.4c-0.4,0.4-0.9,0.7-1.3,0.9c0.7,0.2,1.3,0.6,1.8,1c0.5,0.4,1,1,1.5,1.7l11.4,17.5h-7.8
				c-0.5,0-0.9,0-1.3-0.1c-0.4-0.1-0.7-0.2-0.9-0.3c-0.3-0.1-0.5-0.3-0.7-0.5c-0.2-0.2-0.4-0.4-0.5-0.7L14,23.2
				c-0.3-0.5-0.7-0.8-1.2-1c-0.5-0.2-1.1-0.3-1.9-0.3H8.7v16H0V0.2h8.7V15.5z"/>
		</g>
		<g>
			<path fill="#6C7DAB" d="M45.1,23.9v13.9h-8.7V0.2h12.3c2.7,0,5.1,0.3,7,0.8c1.9,0.6,3.5,1.3,4.7,2.3c1.2,1,2.1,2.2,2.7,3.5
				c0.6,1.4,0.8,2.8,0.8,4.5c0,1.2-0.2,2.4-0.5,3.5c-0.3,1.1-0.8,2.1-1.5,3c-0.6,0.9-1.4,1.7-2.4,2.5c-0.9,0.7-2,1.3-3.2,1.8
				c0.6,0.3,1.1,0.7,1.6,1.1c0.5,0.4,1,1,1.3,1.6l8,13.1h-7.9c-1.5,0-2.5-0.6-3.2-1.7l-6.3-10.9c-0.3-0.5-0.6-0.8-1-1
				s-0.9-0.3-1.6-0.3H45.1z M45.1,17.9h3.5c1.2,0,2.2-0.2,3-0.5c0.8-0.3,1.5-0.7,2.1-1.3c0.5-0.5,0.9-1.2,1.2-1.9
				c0.2-0.7,0.4-1.5,0.4-2.3c0-1.7-0.5-2.9-1.6-3.9c-1.1-0.9-2.7-1.4-5-1.4h-3.5V17.9z"/>
		</g>
		<g>
			<path fill="#6C7DAB" d="M106.6,37.9h-6.8c-0.8,0-1.4-0.2-1.9-0.5c-0.5-0.4-0.8-0.8-1-1.4l-2.2-6.6H80.4L78.2,36
				c-0.2,0.5-0.5,0.9-1,1.3c-0.5,0.4-1.1,0.6-1.8,0.6h-6.8L83.1,0.2h9L106.6,37.9z M82.4,23.5h10.3l-3.5-10.3
				c-0.2-0.7-0.5-1.4-0.8-2.3C88.1,9.9,87.9,9,87.6,8c-0.3,1.1-0.6,2-0.9,2.9c-0.3,0.9-0.6,1.7-0.8,2.3L82.4,23.5z"/>
		</g>
		<g>
			<path fill="#6C7DAB" d="M133.5,0.2v6.7H118v9.5h12.9v6.8H118v14.7h-8.8V0.2H133.5z"/>
		</g>
		<g>
			<path fill="#6C7DAB" d="M165.5,0.2v6.9h-10.6v30.8h-8.7V7.1h-10.6V0.2H165.5z"/>
		</g>
		<g>
			<path fill="#6C7DAB" d="M34.2,67.5c0,2.7-0.5,5.2-1.4,7.5c-0.9,2.3-2.3,4.3-4,6c-1.7,1.7-3.8,3-6.2,3.9c-2.4,0.9-5.1,1.4-8,1.4H0
				V48.7h14.6c2.9,0,5.6,0.5,8,1.4c2.4,0.9,4.5,2.3,6.2,3.9s3,3.7,4,6C33.7,62.3,34.2,64.8,34.2,67.5z M25.3,67.5
				c0-1.9-0.2-3.5-0.7-5c-0.5-1.5-1.2-2.8-2.1-3.8c-0.9-1-2-1.8-3.3-2.4c-1.3-0.6-2.8-0.8-4.5-0.8H8.8v24.2h5.8
				c1.7,0,3.2-0.3,4.5-0.8c1.3-0.6,2.4-1.4,3.3-2.4c0.9-1,1.6-2.3,2.1-3.8C25,71.1,25.3,69.4,25.3,67.5z"/>
		</g>
		<g>
			<path fill="#6C7DAB" d="M62.7,48.7v6.7H47.3v8.8h11.9v6.5H47.3v9h15.5v6.7H38.5V48.7H62.7z"/>
		</g>
		<g>
			<path fill="#6C7DAB" d="M88.7,56.4c-0.3,0.4-0.5,0.7-0.8,0.9c-0.3,0.2-0.7,0.3-1.1,0.3c-0.4,0-0.8-0.1-1.3-0.4
				c-0.5-0.2-1-0.5-1.6-0.8c-0.6-0.3-1.2-0.6-2-0.8c-0.7-0.2-1.6-0.4-2.5-0.4c-1.6,0-2.9,0.4-3.7,1s-1.2,1.6-1.2,2.8
				c0,0.8,0.2,1.4,0.7,1.9c0.5,0.5,1.1,0.9,1.9,1.3c0.8,0.4,1.7,0.7,2.7,1c1,0.3,2,0.6,3.1,1C84,64.6,85,65,86,65.5
				c1,0.5,1.9,1.1,2.7,1.9c0.8,0.8,1.4,1.7,1.9,2.8c0.5,1.1,0.7,2.5,0.7,4c0,1.7-0.3,3.4-0.9,4.9c-0.6,1.5-1.5,2.8-2.6,4
				c-1.1,1.1-2.6,2-4.2,2.7c-1.7,0.6-3.6,1-5.7,1c-1.2,0-2.4-0.1-3.6-0.4c-1.2-0.2-2.4-0.6-3.5-1c-1.1-0.4-2.2-1-3.2-1.6
				c-1-0.6-1.9-1.3-2.6-2l2.6-4.1c0.2-0.3,0.5-0.6,0.8-0.8c0.3-0.2,0.7-0.3,1.1-0.3c0.5,0,1,0.2,1.6,0.5c0.5,0.3,1.1,0.7,1.8,1.1
				c0.7,0.4,1.4,0.8,2.3,1.1c0.9,0.3,1.9,0.5,3.1,0.5c1.6,0,2.8-0.3,3.7-1c0.9-0.7,1.3-1.8,1.3-3.3c0-0.9-0.2-1.6-0.7-2.1
				c-0.5-0.6-1.1-1-1.9-1.4c-0.8-0.4-1.7-0.7-2.7-1c-1-0.3-2-0.6-3.1-0.9c-1.1-0.3-2.1-0.8-3.1-1.2c-1-0.5-1.9-1.1-2.7-1.9
				c-0.8-0.8-1.4-1.8-1.9-3c-0.5-1.2-0.7-2.7-0.7-4.4c0-1.4,0.3-2.8,0.9-4.1c0.6-1.3,1.4-2.5,2.5-3.6c1.1-1.1,2.5-1.9,4.1-2.5
				c1.6-0.6,3.4-0.9,5.5-0.9c1.2,0,2.3,0.1,3.4,0.3c1.1,0.2,2.1,0.4,3.1,0.8c1,0.4,1.9,0.8,2.8,1.3c0.9,0.5,1.6,1,2.3,1.7L88.7,56.4
				z"/>
		</g>
		<g>
			<path fill="#6C7DAB" d="M105,86.4h-8.8V48.7h8.8V86.4z"/>
		</g>
		<g>
			<path fill="#6C7DAB" d="M129.6,80.1c1.2,0,2.3-0.1,3.2-0.3c0.9-0.2,1.8-0.5,2.6-0.8v-5.7h-3.7c-0.6,0-1-0.1-1.3-0.4
				c-0.3-0.3-0.5-0.7-0.5-1.1v-4.8h13.4v15.9c-1,0.7-2,1.3-3,1.8c-1,0.5-2.2,0.9-3.3,1.3c-1.2,0.3-2.4,0.6-3.8,0.7
				c-1.3,0.2-2.8,0.2-4.3,0.2c-2.8,0-5.3-0.5-7.7-1.5c-2.3-1-4.4-2.3-6.1-4c-1.7-1.7-3.1-3.8-4-6.1c-1-2.4-1.5-4.9-1.5-7.7
				c0-2.8,0.5-5.4,1.4-7.8c0.9-2.4,2.3-4.4,4-6.1c1.7-1.7,3.8-3,6.3-4c2.5-0.9,5.2-1.4,8.2-1.4c1.6,0,3,0.1,4.4,0.4
				c1.4,0.3,2.7,0.6,3.8,1.1c1.2,0.4,2.2,1,3.2,1.6c1,0.6,1.8,1.3,2.6,2l-2.5,3.9c-0.2,0.4-0.5,0.6-0.9,0.9
				c-0.3,0.2-0.7,0.3-1.1,0.3c-0.5,0-1.1-0.2-1.6-0.5c-0.7-0.4-1.3-0.8-2-1.1c-0.6-0.3-1.2-0.5-1.9-0.7c-0.6-0.2-1.3-0.3-2-0.4
				c-0.7-0.1-1.5-0.1-2.4-0.1c-1.6,0-3.1,0.3-4.4,0.9c-1.3,0.6-2.4,1.4-3.3,2.4c-0.9,1.1-1.6,2.3-2.1,3.8c-0.5,1.5-0.8,3.1-0.8,4.9
				c0,2,0.3,3.8,0.8,5.3c0.6,1.6,1.3,2.9,2.3,3.9c1,1.1,2.1,1.9,3.5,2.4C126.6,79.8,128,80.1,129.6,80.1z"/>
		</g>
		<g>
			<path fill="#6C7DAB" d="M154.4,48.7c0.3,0,0.5,0.1,0.7,0.2c0.2,0.1,0.4,0.2,0.6,0.4c0.2,0.2,0.4,0.4,0.6,0.7l17.9,22.6
				c-0.1-0.7-0.1-1.4-0.2-2.1c0-0.7-0.1-1.3-0.1-1.9V48.7h7.7v37.7h-4.6c-0.7,0-1.2-0.1-1.7-0.3c-0.5-0.2-0.9-0.6-1.3-1.1
				l-17.8-22.5c0.1,0.7,0.1,1.3,0.1,1.9c0,0.6,0.1,1.2,0.1,1.8v20.2h-7.7V48.7h4.6C153.8,48.7,154.2,48.7,154.4,48.7z"/>
		</g>
		<g>
			<path fill="#6C7DAB" d="M213.5,67.1c0.1,0,0.3,0,0.4,0.1c0.1,0.1,0.3,0.1,0.4,0.3l2.3,2.4c-1,1.3-2.2,2.3-3.7,2.9
				c-1.5,0.7-3.3,1-5.3,1c-1.9,0-3.6-0.3-5-1c-1.5-0.6-2.8-1.5-3.8-2.6c-1-1.1-1.8-2.5-2.4-4c-0.6-1.5-0.8-3.2-0.8-5
				c0-1.8,0.3-3.5,1-5.1c0.6-1.5,1.5-2.9,2.7-4c1.1-1.1,2.5-2,4.1-2.6c1.6-0.6,3.3-0.9,5.2-0.9c0.9,0,1.8,0.1,2.6,0.2
				c0.8,0.2,1.6,0.4,2.3,0.7c0.7,0.3,1.4,0.6,2,1c0.6,0.4,1.1,0.8,1.6,1.3l-1.9,2.6c-0.1,0.2-0.3,0.3-0.4,0.4
				c-0.2,0.1-0.4,0.2-0.7,0.2c-0.2,0-0.4,0-0.6-0.1c-0.2-0.1-0.4-0.2-0.6-0.3c-0.2-0.1-0.4-0.3-0.7-0.4c-0.2-0.2-0.5-0.3-0.9-0.4
				c-0.3-0.1-0.7-0.2-1.2-0.3c-0.4-0.1-1-0.1-1.6-0.1c-1,0-2,0.2-2.9,0.6c-0.9,0.4-1.6,0.9-2.2,1.6s-1.1,1.5-1.4,2.5
				c-0.3,1-0.5,2.1-0.5,3.3c0,1.3,0.2,2.4,0.5,3.4c0.3,1,0.8,1.8,1.4,2.5c0.6,0.7,1.3,1.2,2.1,1.5c0.8,0.4,1.6,0.5,2.5,0.5
				c0.5,0,1,0,1.4-0.1c0.4-0.1,0.8-0.1,1.2-0.3c0.4-0.1,0.7-0.3,1-0.5c0.3-0.2,0.7-0.4,1-0.7c0.1-0.1,0.3-0.2,0.4-0.3
				S213.3,67.1,213.5,67.1z"/>
		</g>
		<g>
			<path fill="#6C7DAB" d="M243,61.1c0,1.8-0.3,3.4-0.9,5c-0.6,1.5-1.5,2.9-2.6,4s-2.5,2-4,2.7c-1.6,0.6-3.3,1-5.3,1
				c-1.9,0-3.7-0.3-5.3-1c-1.6-0.6-2.9-1.5-4.1-2.7c-1.1-1.1-2-2.5-2.6-4c-0.6-1.5-0.9-3.2-0.9-5s0.3-3.5,0.9-5
				c0.6-1.5,1.5-2.9,2.6-4c1.1-1.1,2.5-2,4.1-2.7c1.6-0.6,3.3-1,5.3-1c1.9,0,3.7,0.3,5.3,1c1.6,0.7,2.9,1.5,4,2.7
				c1.1,1.1,2,2.5,2.6,4C242.7,57.7,243,59.3,243,61.1z M237.1,61.1c0-1.2-0.2-2.3-0.5-3.3c-0.3-1-0.8-1.8-1.4-2.5s-1.3-1.2-2.2-1.6
				c-0.9-0.4-1.8-0.5-2.9-0.5c-1.1,0-2.1,0.2-3,0.5c-0.9,0.4-1.6,0.9-2.2,1.6s-1,1.5-1.4,2.5c-0.3,1-0.5,2.1-0.5,3.3
				c0,1.2,0.2,2.3,0.5,3.3c0.3,1,0.8,1.8,1.4,2.5c0.6,0.7,1.3,1.2,2.2,1.6c0.9,0.4,1.9,0.5,3,0.5c1.1,0,2.1-0.2,2.9-0.5
				c0.9-0.4,1.6-0.9,2.2-1.6c0.6-0.7,1-1.5,1.4-2.5C237,63.4,237.1,62.3,237.1,61.1z"/>
		</g>
		<g>
			<path fill="#6C7DAB" d="M244,70.8c0-0.4,0.1-0.8,0.2-1.1c0.2-0.4,0.4-0.7,0.6-0.9c0.3-0.3,0.6-0.5,0.9-0.6
				c0.4-0.2,0.8-0.2,1.2-0.2c0.4,0,0.8,0.1,1.2,0.2c0.4,0.2,0.7,0.4,0.9,0.6c0.3,0.3,0.5,0.6,0.6,0.9c0.2,0.4,0.2,0.7,0.2,1.1
				c0,0.4-0.1,0.8-0.2,1.1c-0.2,0.4-0.4,0.7-0.6,0.9c-0.3,0.3-0.6,0.5-0.9,0.6c-0.4,0.1-0.8,0.2-1.2,0.2c-0.4,0-0.8-0.1-1.2-0.2
				c-0.4-0.1-0.7-0.4-0.9-0.6c-0.3-0.3-0.5-0.6-0.6-0.9C244.1,71.6,244,71.2,244,70.8z"/>
		</g>
	</g>
	<g>
		<rect x="196.4" y="81.9" fill="#6C7DAB" width="47.3" height="3.2"/>
	</g>
</g>
</svg>
