<?xml version="1.0" encoding="utf-8"?>
<!-- Generator: Adobe Illustrator 18.1.1, SVG Export Plug-In . SVG Version: 6.00 Build 0)  -->
<svg version="1.1" id="Layer_1" xmlns="http://www.w3.org/2000/svg" xmlns:xlink="http://www.w3.org/1999/xlink" x="0px" y="0px"
	 viewBox="0 0 300 27" enable-background="new 0 0 300 27" xml:space="preserve">
<g>
	<g>
		<g>
			<path fill="#6C7DAB" d="M6.1,11h1c0.9,0,1.6-0.3,2-0.9L15,1.5c0.3-0.5,0.7-0.8,1.1-1c0.4-0.2,0.9-0.3,1.5-0.3H23L15.1,11
				c-0.3,0.4-0.6,0.7-0.9,1c-0.3,0.3-0.6,0.5-0.9,0.6c0.5,0.2,0.9,0.4,1.3,0.7c0.4,0.3,0.7,0.7,1,1.2l8,12.2h-5.5
				c-0.4,0-0.6,0-0.9-0.1c-0.2,0-0.5-0.1-0.6-0.2s-0.3-0.2-0.5-0.4c-0.1-0.1-0.3-0.3-0.4-0.5l-6-9.2C9.6,16,9.3,15.8,9,15.7
				c-0.3-0.1-0.8-0.2-1.3-0.2H6.1v11.2H0V0.3h6.1V11z"/>
		</g>
		<g>
			<path fill="#6C7DAB" d="M31.6,16.9v9.8h-6.1V0.3H34c1.9,0,3.5,0.2,4.9,0.6c1.3,0.4,2.4,0.9,3.3,1.6C43,3.2,43.7,4.1,44,5
				c0.4,1,0.6,2,0.6,3.1c0,0.9-0.1,1.7-0.3,2.4c-0.2,0.8-0.6,1.5-1,2.1c-0.5,0.6-1,1.2-1.7,1.7c-0.7,0.5-1.4,0.9-2.3,1.2
				c0.4,0.2,0.8,0.5,1.1,0.8c0.4,0.3,0.7,0.7,0.9,1.1l5.6,9.2h-5.5c-1,0-1.8-0.4-2.2-1.2l-4.4-7.7c-0.2-0.3-0.4-0.6-0.7-0.7
				c-0.3-0.1-0.6-0.2-1.1-0.2H31.6z M31.6,12.7H34c0.8,0,1.5-0.1,2.1-0.3c0.6-0.2,1.1-0.5,1.4-0.9c0.4-0.4,0.6-0.8,0.8-1.3
				c0.2-0.5,0.3-1,0.3-1.6c0-1.2-0.4-2.1-1.1-2.7c-0.8-0.7-1.9-1-3.5-1h-2.5V12.7z"/>
		</g>
		<g>
			<path fill="#6C7DAB" d="M74.6,26.7h-4.7c-0.5,0-1-0.1-1.3-0.4c-0.3-0.2-0.6-0.6-0.7-0.9l-1.6-4.6h-10l-1.6,4.6
				c-0.1,0.3-0.4,0.6-0.7,0.9c-0.4,0.3-0.8,0.4-1.3,0.4h-4.8L58.1,0.3h6.3L74.6,26.7z M57.6,16.6h7.2l-2.4-7.2
				c-0.2-0.5-0.3-1-0.6-1.6c-0.2-0.6-0.4-1.3-0.6-2c-0.2,0.7-0.4,1.4-0.6,2S60.2,9,60.1,9.4L57.6,16.6z"/>
		</g>
		<g>
			<path fill="#6C7DAB" d="M93.3,0.3V5H82.5v6.7h9v4.7h-9v10.3h-6.2V0.3H93.3z"/>
		</g>
		<g>
			<path fill="#6C7DAB" d="M115.7,0.3v4.8h-7.4v21.5h-6.1V5.2h-7.4V0.3H115.7z"/>
		</g>
		<g>
			<path fill="#6C7DAB" d="M149.1,13.5c0,1.9-0.3,3.7-1,5.3c-0.7,1.6-1.6,3-2.8,4.2c-1.2,1.2-2.6,2.1-4.3,2.7c-1.7,0.7-3.5,1-5.6,1
				h-10.2V0.3h10.2c2.1,0,3.9,0.3,5.6,1c1.7,0.7,3.1,1.6,4.3,2.7c1.2,1.2,2.1,2.6,2.8,4.2C148.8,9.8,149.1,11.6,149.1,13.5z
				 M142.9,13.5c0-1.3-0.2-2.5-0.5-3.5c-0.3-1-0.8-1.9-1.5-2.7c-0.6-0.7-1.4-1.3-2.3-1.7c-0.9-0.4-2-0.6-3.1-0.6h-4.1v17h4.1
				c1.2,0,2.2-0.2,3.1-0.6c0.9-0.4,1.7-1,2.3-1.7c0.6-0.7,1.1-1.6,1.5-2.7C142.7,16,142.9,14.8,142.9,13.5z"/>
		</g>
		<g>
			<path fill="#6C7DAB" d="M169.1,0.3V5h-10.8v6.2h8.3v4.5h-8.3V22h10.8v4.7h-17V0.3H169.1z"/>
		</g>
		<g>
			<path fill="#6C7DAB" d="M187.2,5.7c-0.2,0.3-0.4,0.5-0.6,0.7c-0.2,0.1-0.5,0.2-0.8,0.2c-0.3,0-0.6-0.1-0.9-0.3
				c-0.3-0.2-0.7-0.4-1.1-0.6c-0.4-0.2-0.9-0.4-1.4-0.6c-0.5-0.2-1.1-0.3-1.8-0.3c-1.1,0-2,0.2-2.6,0.7c-0.6,0.5-0.8,1.1-0.8,2
				c0,0.5,0.2,1,0.5,1.3s0.8,0.7,1.3,0.9c0.5,0.3,1.2,0.5,1.9,0.7c0.7,0.2,1.4,0.4,2.2,0.7s1.5,0.6,2.2,0.9c0.7,0.4,1.3,0.8,1.9,1.3
				c0.5,0.5,1,1.2,1.3,2c0.3,0.8,0.5,1.7,0.5,2.8c0,1.2-0.2,2.4-0.6,3.4c-0.4,1.1-1,2-1.8,2.8c-0.8,0.8-1.8,1.4-3,1.9
				c-1.2,0.5-2.5,0.7-4,0.7c-0.8,0-1.7-0.1-2.5-0.3c-0.9-0.2-1.7-0.4-2.5-0.7c-0.8-0.3-1.5-0.7-2.2-1.1c-0.7-0.4-1.3-0.9-1.8-1.4
				l1.8-2.9c0.1-0.2,0.3-0.4,0.6-0.5c0.2-0.1,0.5-0.2,0.8-0.2c0.4,0,0.7,0.1,1.1,0.3c0.4,0.2,0.8,0.5,1.2,0.8c0.5,0.3,1,0.5,1.6,0.8
				c0.6,0.2,1.3,0.3,2.1,0.3c1.1,0,2-0.2,2.6-0.7c0.6-0.5,0.9-1.3,0.9-2.3c0-0.6-0.2-1.1-0.5-1.5c-0.3-0.4-0.8-0.7-1.3-1
				c-0.5-0.3-1.2-0.5-1.9-0.7c-0.7-0.2-1.4-0.4-2.2-0.6s-1.5-0.5-2.2-0.9c-0.7-0.3-1.3-0.8-1.9-1.4c-0.5-0.6-1-1.3-1.3-2.1
				c-0.3-0.8-0.5-1.9-0.5-3.1c0-1,0.2-2,0.6-2.9c0.4-0.9,1-1.8,1.8-2.5s1.7-1.3,2.8-1.8c1.1-0.4,2.4-0.7,3.9-0.7
				c0.8,0,1.6,0.1,2.4,0.2c0.8,0.1,1.5,0.3,2.2,0.6c0.7,0.2,1.3,0.5,1.9,0.9s1.1,0.7,1.6,1.2L187.2,5.7z"/>
		</g>
		<g>
			<path fill="#6C7DAB" d="M198.7,26.7h-6.1V0.3h6.1V26.7z"/>
		</g>
		<g>
			<path fill="#6C7DAB" d="M215.8,22.3c0.8,0,1.6-0.1,2.2-0.2c0.7-0.1,1.3-0.3,1.8-0.6v-4h-2.6c-0.4,0-0.7-0.1-0.9-0.3
				c-0.2-0.2-0.3-0.5-0.3-0.8V13h9.4v11.1c-0.7,0.5-1.4,0.9-2.1,1.3c-0.7,0.4-1.5,0.6-2.3,0.9c-0.8,0.2-1.7,0.4-2.6,0.5
				c-0.9,0.1-1.9,0.2-3,0.2c-1.9,0-3.7-0.3-5.4-1c-1.6-0.7-3.1-1.6-4.3-2.8c-1.2-1.2-2.1-2.6-2.8-4.3c-0.7-1.6-1-3.4-1-5.4
				c0-2,0.3-3.8,1-5.4c0.7-1.6,1.6-3.1,2.8-4.3c1.2-1.2,2.7-2.1,4.4-2.8c1.7-0.7,3.6-1,5.8-1c1.1,0,2.1,0.1,3.1,0.3s1.9,0.4,2.7,0.7
				c0.8,0.3,1.6,0.7,2.2,1.1c0.7,0.4,1.3,0.9,1.8,1.4l-1.8,2.7c-0.2,0.3-0.4,0.5-0.6,0.6c-0.2,0.1-0.5,0.2-0.8,0.2
				c-0.4,0-0.7-0.1-1.1-0.4c-0.5-0.3-0.9-0.5-1.4-0.7c-0.4-0.2-0.9-0.4-1.3-0.5c-0.4-0.1-0.9-0.2-1.4-0.3c-0.5-0.1-1-0.1-1.7-0.1
				c-1.1,0-2.2,0.2-3.1,0.6c-0.9,0.4-1.7,1-2.3,1.7c-0.6,0.7-1.1,1.6-1.5,2.6c-0.4,1-0.5,2.2-0.5,3.4c0,1.4,0.2,2.6,0.6,3.7
				c0.4,1.1,0.9,2,1.6,2.8c0.7,0.7,1.5,1.3,2.4,1.7C213.7,22.1,214.7,22.3,215.8,22.3z"/>
		</g>
		<g>
			<path fill="#6C7DAB" d="M233.2,0.4c0.2,0,0.3,0.1,0.5,0.1s0.3,0.2,0.4,0.3s0.3,0.3,0.5,0.5l12.5,15.8c0-0.5-0.1-1-0.1-1.5
				c0-0.5,0-0.9,0-1.3V0.3h5.4v26.4h-3.2c-0.5,0-0.9-0.1-1.2-0.2c-0.3-0.1-0.6-0.4-0.9-0.8L234.6,10c0,0.5,0.1,0.9,0.1,1.3
				s0,0.9,0,1.2v14.1h-5.4V0.3h3.2C232.8,0.3,233,0.3,233.2,0.4z"/>
		</g>
		<g>
			<path fill="#6C7DAB" d="M274.5,13.2c0.1,0,0.2,0,0.3,0.1c0.1,0,0.2,0.1,0.3,0.2l1.6,1.7c-0.7,0.9-1.6,1.6-2.6,2.1
				c-1,0.5-2.3,0.7-3.7,0.7c-1.3,0-2.5-0.2-3.5-0.7c-1-0.4-1.9-1.1-2.6-1.9c-0.7-0.8-1.3-1.7-1.7-2.8c-0.4-1.1-0.6-2.3-0.6-3.5
				c0-1.3,0.2-2.5,0.7-3.6c0.4-1.1,1.1-2,1.9-2.8c0.8-0.8,1.7-1.4,2.9-1.8c1.1-0.4,2.3-0.7,3.7-0.7c0.6,0,1.3,0.1,1.8,0.2
				c0.6,0.1,1.1,0.3,1.6,0.5c0.5,0.2,1,0.4,1.4,0.7c0.4,0.3,0.8,0.6,1.1,0.9l-1.4,1.8c-0.1,0.1-0.2,0.2-0.3,0.3
				c-0.1,0.1-0.3,0.1-0.5,0.1c-0.1,0-0.3,0-0.4-0.1c-0.1-0.1-0.3-0.1-0.4-0.2c-0.1-0.1-0.3-0.2-0.5-0.3c-0.2-0.1-0.4-0.2-0.6-0.3
				c-0.2-0.1-0.5-0.2-0.8-0.2c-0.3-0.1-0.7-0.1-1.1-0.1c-0.7,0-1.4,0.1-2,0.4s-1.1,0.6-1.5,1.1c-0.4,0.5-0.8,1.1-1,1.7
				C266.1,7.4,266,8.2,266,9c0,0.9,0.1,1.7,0.4,2.4c0.2,0.7,0.6,1.3,1,1.7c0.4,0.5,0.9,0.8,1.5,1.1c0.6,0.2,1.1,0.4,1.8,0.4
				c0.4,0,0.7,0,1-0.1s0.6-0.1,0.8-0.2c0.3-0.1,0.5-0.2,0.7-0.3c0.2-0.1,0.5-0.3,0.7-0.5c0.1-0.1,0.2-0.1,0.3-0.2
				C274.3,13.2,274.4,13.2,274.5,13.2z"/>
		</g>
		<g>
			<path fill="#6C7DAB" d="M295.1,9c0,1.2-0.2,2.4-0.6,3.5c-0.4,1.1-1,2-1.8,2.8c-0.8,0.8-1.7,1.4-2.8,1.9c-1.1,0.5-2.3,0.7-3.7,0.7
				s-2.6-0.2-3.7-0.7c-1.1-0.5-2.1-1.1-2.8-1.9c-0.8-0.8-1.4-1.7-1.8-2.8c-0.4-1.1-0.6-2.2-0.6-3.5s0.2-2.4,0.6-3.5s1-2,1.8-2.8
				c0.8-0.8,1.7-1.4,2.8-1.9c1.1-0.5,2.3-0.7,3.7-0.7s2.6,0.2,3.7,0.7c1.1,0.5,2,1.1,2.8,1.9c0.8,0.8,1.4,1.7,1.8,2.8
				S295.1,7.8,295.1,9z M291,9c0-0.9-0.1-1.6-0.3-2.3c-0.2-0.7-0.5-1.3-1-1.7s-0.9-0.8-1.5-1.1c-0.6-0.3-1.3-0.4-2.1-0.4
				c-0.8,0-1.5,0.1-2.1,0.4c-0.6,0.3-1.1,0.6-1.5,1.1c-0.4,0.5-0.7,1.1-1,1.7c-0.2,0.7-0.3,1.5-0.3,2.3c0,0.9,0.1,1.6,0.3,2.3
				c0.2,0.7,0.5,1.3,1,1.7c0.4,0.5,0.9,0.8,1.5,1.1c0.6,0.2,1.3,0.4,2.1,0.4c0.8,0,1.5-0.1,2.1-0.4c0.6-0.2,1.1-0.6,1.5-1.1
				c0.4-0.5,0.7-1.1,1-1.7C290.9,10.6,291,9.9,291,9z"/>
		</g>
		<g>
			<path fill="#6C7DAB" d="M295.8,15.8c0-0.3,0.1-0.5,0.2-0.8c0.1-0.2,0.3-0.5,0.4-0.6s0.4-0.3,0.7-0.4c0.3-0.1,0.5-0.2,0.8-0.2
				c0.3,0,0.6,0.1,0.8,0.2c0.3,0.1,0.5,0.3,0.7,0.4c0.2,0.2,0.3,0.4,0.4,0.6s0.2,0.5,0.2,0.8c0,0.3-0.1,0.6-0.2,0.8
				c-0.1,0.2-0.3,0.5-0.4,0.6c-0.2,0.2-0.4,0.3-0.7,0.4c-0.3,0.1-0.5,0.2-0.8,0.2c-0.3,0-0.6-0.1-0.8-0.2s-0.5-0.2-0.7-0.4
				s-0.3-0.4-0.4-0.6C295.9,16.3,295.8,16.1,295.8,15.8z"/>
		</g>
	</g>
	<g>
		<rect x="262.7" y="24.3" fill="#6C7DAB" width="33" height="2.3"/>
	</g>
</g>
</svg>
